<?xml version="1.0" encoding="UTF-8" standalone="no"?>
<!DOCTYPE svg PUBLIC "-//W3C//DTD SVG 1.1//EN"
 "http://www.w3.org/Graphics/SVG/1.1/DTD/svg11.dtd">
<!-- Generated by graphviz version 2.38.0 (20140413.2041)
 -->
<!-- Title: controllers_diagram Pages: 1 -->
<svg width="392pt" height="341pt"
 viewBox="0.00 0.00 391.51 341.00" xmlns="http://www.w3.org/2000/svg" xmlns:xlink="http://www.w3.org/1999/xlink">
<g id="graph0" class="graph" transform="scale(1 1) rotate(0) translate(99.8208 225.5)">
<title>controllers_diagram</title>
<polygon fill="none" stroke="none" points="-99.8208,115.5 -99.8208,-225.5 291.688,-225.5 291.688,115.5 -99.8208,115.5"/>
<!-- _diagram_info -->
<g id="node1" class="node"><title>_diagram_info</title>
<text text-anchor="start" x="88.3123" y="20.9" font-family="Times,serif" font-size="13.00">Controllers diagram</text>
<text text-anchor="start" x="88.3123" y="33.9" font-family="Times,serif" font-size="13.00">Date: Sep 24 2015 &#45; 14:40</text>
<text text-anchor="start" x="88.3123" y="46.9" font-family="Times,serif" font-size="13.00">Migration version: 20140106022030</text>
<text text-anchor="start" x="88.3123" y="59.9" font-family="Times,serif" font-size="13.00">Generated by RailRoady 1.3.1</text>
<text text-anchor="start" x="88.3123" y="72.9" font-family="Times,serif" font-size="13.00">http://railroady.prestonlee.com</text>
</g>
<!-- ApplicationController -->
<g id="node2" class="node"><title>ApplicationController</title>
<path fill="none" stroke="black" d="M-83.8208,-129C-83.8208,-129 31.8208,-129 31.8208,-129 37.8208,-129 43.8208,-135 43.8208,-141 43.8208,-141 43.8208,-209 43.8208,-209 43.8208,-215 37.8208,-221 31.8208,-221 31.8208,-221 -83.8208,-221 -83.8208,-221 -89.8208,-221 -95.8208,-215 -95.8208,-209 -95.8208,-209 -95.8208,-141 -95.8208,-141 -95.8208,-135 -89.8208,-129 -83.8208,-129"/>
<text text-anchor="middle" x="-26" y="-205.8" font-family="Times,serif" font-size="14.00">ApplicationController</text>
<polyline fill="none" stroke="black" points="-95.8208,-199 43.8208,-199 "/>
<polyline fill="none" stroke="black" points="-95.8208,-175 43.8208,-175 "/>
<polyline fill="none" stroke="black" points="-95.8208,-151 43.8208,-151 "/>
<text text-anchor="start" x="-87.8208" y="-135.8" font-family="Times,serif" font-size="14.00">_layout</text>
</g>
<!-- BuildsController -->
<g id="node3" class="node"><title>BuildsController</title>
<path fill="none" stroke="black" d="M91.9448,-33C91.9448,-33 178.055,-33 178.055,-33 184.055,-33 190.055,-39 190.055,-45 190.055,-45 190.055,-195 190.055,-195 190.055,-201 184.055,-207 178.055,-207 178.055,-207 91.9448,-207 91.9448,-207 85.9448,-207 79.9448,-201 79.9448,-195 79.9448,-195 79.9448,-45 79.9448,-45 79.9448,-39 85.9448,-33 91.9448,-33"/>
<text text-anchor="middle" x="135" y="-191.8" font-family="Times,serif" font-size="14.00">BuildsController</text>
<polyline fill="none" stroke="black" points="79.9448,-185 190.055,-185 "/>
<text text-anchor="start" x="87.9448" y="-169.8" font-family="Times,serif" font-size="14.00">create</text>
<text text-anchor="start" x="87.9448" y="-155.8" font-family="Times,serif" font-size="14.00">destroy</text>
<text text-anchor="start" x="87.9448" y="-141.8" font-family="Times,serif" font-size="14.00">index</text>
<text text-anchor="start" x="87.9448" y="-127.8" font-family="Times,serif" font-size="14.00">new</text>
<text text-anchor="start" x="87.9448" y="-113.8" font-family="Times,serif" font-size="14.00">show</text>
<polyline fill="none" stroke="black" points="79.9448,-107 190.055,-107 "/>
<polyline fill="none" stroke="black" points="79.9448,-83 190.055,-83 "/>
<text text-anchor="start" x="87.9448" y="-67.8" font-family="Times,serif" font-size="14.00">_layout</text>
<text text-anchor="start" x="87.9448" y="-53.8" font-family="Times,serif" font-size="14.00">build_params</text>
<text text-anchor="start" x="87.9448" y="-39.8" font-family="Times,serif" font-size="14.00">set_build</text>
</g>
<!-- ProjectsController -->
<g id="node4" class="node"><title>ProjectsController</title>
<path fill="none" stroke="black" d="M-52.3242,111C-52.3242,111 42.3242,111 42.3242,111 48.3242,111 54.3242,105 54.3242,99 54.3242,99 54.3242,-79 54.3242,-79 54.3242,-85 48.3242,-91 42.3242,-91 42.3242,-91 -52.3242,-91 -52.3242,-91 -58.3242,-91 -64.3242,-85 -64.3242,-79 -64.3242,-79 -64.3242,99 -64.3242,99 -64.3242,105 -58.3242,111 -52.3242,111"/>
<text text-anchor="middle" x="-5" y="-75.8" font-family="Times,serif" font-size="14.00">ProjectsController</text>
<polyline fill="none" stroke="black" points="-64.3242,-69 54.3242,-69 "/>
<text text-anchor="start" x="-56.3242" y="-53.8" font-family="Times,serif" font-size="14.00">create</text>
<text text-anchor="start" x="-56.3242" y="-39.8" font-family="Times,serif" font-size="14.00">destroy</text>
<text text-anchor="start" x="-56.3242" y="-25.8" font-family="Times,serif" font-size="14.00">edit</text>
<text text-anchor="start" x="-56.3242" y="-11.8" font-family="Times,serif" font-size="14.00">new</text>
<text text-anchor="start" x="-56.3242" y="2.2" font-family="Times,serif" font-size="14.00">show</text>
<text text-anchor="start" x="-56.3242" y="16.2" font-family="Times,serif" font-size="14.00">update</text>
<polyline fill="none" stroke="black" points="-64.3242,23 54.3242,23 "/>
<polyline fill="none" stroke="black" points="-64.3242,47 54.3242,47 "/>
<text text-anchor="start" x="-56.3242" y="62.2" font-family="Times,serif" font-size="14.00">_layout</text>
<text text-anchor="start" x="-56.3242" y="76.2" font-family="Times,serif" font-size="14.00">project_params</text>
<text text-anchor="start" x="-56.3242" y="90.2" font-family="Times,serif" font-size="14.00">set_hosts</text>
<text text-anchor="start" x="-56.3242" y="104.2" font-family="Times,serif" font-size="14.00">set_project</text>
</g>
</g>
</svg>
