<?xml version="1.0" encoding="UTF-8" standalone="no"?>
<!DOCTYPE svg PUBLIC "-//W3C//DTD SVG 1.1//EN"
 "http://www.w3.org/Graphics/SVG/1.1/DTD/svg11.dtd">
<!-- Generated by graphviz version 2.38.0 (20140413.2041)
 -->
<!-- Title: models_diagram Pages: 1 -->
<svg width="648pt" height="316pt"
 viewBox="0.00 0.00 648.29 316.00" xmlns="http://www.w3.org/2000/svg" xmlns:xlink="http://www.w3.org/1999/xlink">
<g id="graph0" class="graph" transform="scale(1 1) rotate(0) translate(4 312)">
<title>models_diagram</title>
<polygon fill="none" stroke="none" points="-4,4 -4,-312 644.295,-312 644.295,4 -4,4"/>
<!-- _diagram_info -->
<g id="node1" class="node"><title>_diagram_info</title>
<text text-anchor="start" x="8" y="-279.6" font-family="Times,serif" font-size="13.00">Models diagram</text>
<text text-anchor="start" x="8" y="-266.6" font-family="Times,serif" font-size="13.00">Date: Sep 24 2015 &#45; 14:40</text>
<text text-anchor="start" x="8" y="-253.6" font-family="Times,serif" font-size="13.00">Migration version: 20140106022030</text>
<text text-anchor="start" x="8" y="-240.6" font-family="Times,serif" font-size="13.00">Generated by RailRoady 1.3.1</text>
<text text-anchor="start" x="8" y="-227.6" font-family="Times,serif" font-size="13.00">http://railroady.prestonlee.com</text>
</g>
<!-- Build -->
<g id="node2" class="node"><title>Build</title>
<path fill="none" stroke="black" d="M230.186,-0.5C230.186,-0.5 353.19,-0.5 353.19,-0.5 359.19,-0.5 365.19,-6.5 365.19,-12.5 365.19,-12.5 365.19,-158.5 365.19,-158.5 365.19,-164.5 359.19,-170.5 353.19,-170.5 353.19,-170.5 230.186,-170.5 230.186,-170.5 224.186,-170.5 218.186,-164.5 218.186,-158.5 218.186,-158.5 218.186,-12.5 218.186,-12.5 218.186,-6.5 224.186,-0.5 230.186,-0.5"/>
<text text-anchor="middle" x="291.688" y="-155.3" font-family="Times,serif" font-size="14.00">Build</text>
<polyline fill="none" stroke="black" points="218.186,-148.5 365.19,-148.5 "/>
<text text-anchor="start" x="226.186" y="-133.3" font-family="Times,serif" font-size="14.00">id :integer</text>
<text text-anchor="start" x="226.186" y="-119.3" font-family="Times,serif" font-size="14.00">project_id :integer</text>
<text text-anchor="start" x="226.186" y="-105.3" font-family="Times,serif" font-size="14.00">started_at :datetime</text>
<text text-anchor="start" x="226.186" y="-91.3" font-family="Times,serif" font-size="14.00">completed_at :datetime</text>
<text text-anchor="start" x="226.186" y="-77.3" font-family="Times,serif" font-size="14.00">successful :boolean</text>
<text text-anchor="start" x="226.186" y="-63.3" font-family="Times,serif" font-size="14.00">output :text</text>
<text text-anchor="start" x="226.186" y="-49.3" font-family="Times,serif" font-size="14.00">created_at :datetime</text>
<text text-anchor="start" x="226.186" y="-35.3" font-family="Times,serif" font-size="14.00">updated_at :datetime</text>
<text text-anchor="start" x="226.186" y="-21.3" font-family="Times,serif" font-size="14.00">sha :string</text>
<text text-anchor="start" x="226.186" y="-7.3" font-family="Times,serif" font-size="14.00">branch :string</text>
</g>
<!-- Command -->
<g id="node3" class="node"><title>Command</title>
<polygon fill="none" stroke="black" points="376.522,-235.5 376.522,-279.5 450.853,-279.5 450.853,-235.5 376.522,-235.5"/>
<text text-anchor="middle" x="413.688" y="-264.3" font-family="Times,serif" font-size="14.00">Command</text>
<polyline fill="none" stroke="black" points="376.522,-257.5 450.853,-257.5 "/>
<text text-anchor="middle" x="413.688" y="-242.3" font-family="Times,serif" font-size="14.00"> </text>
</g>
<!-- CommitStatus -->
<g id="node4" class="node"><title>CommitStatus</title>
<polygon fill="none" stroke="black" points="468.626,-235.5 468.626,-279.5 564.75,-279.5 564.75,-235.5 468.626,-235.5"/>
<text text-anchor="middle" x="516.688" y="-264.3" font-family="Times,serif" font-size="14.00">CommitStatus</text>
<polyline fill="none" stroke="black" points="468.626,-257.5 564.75,-257.5 "/>
<text text-anchor="middle" x="516.688" y="-242.3" font-family="Times,serif" font-size="14.00"> </text>
</g>
<!-- Project -->
<g id="node5" class="node"><title>Project</title>
<path fill="none" stroke="black" d="M237.182,-207.5C237.182,-207.5 346.193,-207.5 346.193,-207.5 352.193,-207.5 358.193,-213.5 358.193,-219.5 358.193,-219.5 358.193,-295.5 358.193,-295.5 358.193,-301.5 352.193,-307.5 346.193,-307.5 346.193,-307.5 237.182,-307.5 237.182,-307.5 231.182,-307.5 225.182,-301.5 225.182,-295.5 225.182,-295.5 225.182,-219.5 225.182,-219.5 225.182,-213.5 231.182,-207.5 237.182,-207.5"/>
<text text-anchor="middle" x="291.688" y="-292.3" font-family="Times,serif" font-size="14.00">Project</text>
<polyline fill="none" stroke="black" points="225.182,-285.5 358.193,-285.5 "/>
<text text-anchor="start" x="233.182" y="-270.3" font-family="Times,serif" font-size="14.00">id :integer</text>
<text text-anchor="start" x="233.182" y="-256.3" font-family="Times,serif" font-size="14.00">repo :string</text>
<text text-anchor="start" x="233.182" y="-242.3" font-family="Times,serif" font-size="14.00">created_at :datetime</text>
<text text-anchor="start" x="233.182" y="-228.3" font-family="Times,serif" font-size="14.00">updated_at :datetime</text>
<text text-anchor="start" x="233.182" y="-214.3" font-family="Times,serif" font-size="14.00">github_host :text</text>
</g>
<!-- Project&#45;&gt;Build -->
<g id="edge1" class="edge"><title>Project&#45;&gt;Build</title>
<path fill="none" stroke="#8cfab2" d="M291.688,-199.1C291.688,-193.257 291.688,-187.219 291.688,-181.113"/>
<ellipse fill="none" stroke="#8cfab2" cx="291.688" cy="-203.329" rx="4" ry="4"/>
<polygon fill="#8cfab2" stroke="#8cfab2" points="291.688,-180.798 296.188,-170.798 291.688,-175.798 291.688,-170.798 291.688,-170.798 291.688,-170.798 291.688,-175.798 287.188,-170.798 291.688,-180.798 291.688,-180.798"/>
</g>
<!-- Runner -->
<g id="node6" class="node"><title>Runner</title>
<polygon fill="none" stroke="black" points="583.081,-235.5 583.081,-279.5 640.295,-279.5 640.295,-235.5 583.081,-235.5"/>
<text text-anchor="middle" x="611.688" y="-264.3" font-family="Times,serif" font-size="14.00">Runner</text>
<polyline fill="none" stroke="black" points="583.081,-257.5 640.295,-257.5 "/>
<text text-anchor="middle" x="611.688" y="-242.3" font-family="Times,serif" font-size="14.00"> </text>
</g>
</g>
</svg>
