<?xml version="1.0" encoding="UTF-8" standalone="no"?>
<!DOCTYPE svg PUBLIC "-//W3C//DTD SVG 1.1//EN"
 "http://www.w3.org/Graphics/SVG/1.1/DTD/svg11.dtd">
<!-- Generated by graphviz version 2.38.0 (20140413.2041)
 -->
<!-- Title: models_diagram Pages: 1 -->
<svg width="585pt" height="153pt"
 viewBox="0.00 0.00 585.29 153.00" xmlns="http://www.w3.org/2000/svg" xmlns:xlink="http://www.w3.org/1999/xlink">
<g id="graph0" class="graph" transform="scale(1 1) rotate(0) translate(4 149)">
<title>models_diagram</title>
<polygon fill="none" stroke="none" points="-4,4 -4,-149 581.295,-149 581.295,4 -4,4"/>
<!-- _diagram_info -->
<g id="node1" class="node"><title>_diagram_info</title>
<text text-anchor="start" x="8" y="-130.6" font-family="Times,serif" font-size="13.00">Models diagram</text>
<text text-anchor="start" x="8" y="-117.6" font-family="Times,serif" font-size="13.00">Date: Sep 24 2015 &#45; 14:40</text>
<text text-anchor="start" x="8" y="-104.6" font-family="Times,serif" font-size="13.00">Migration version: 20140106022030</text>
<text text-anchor="start" x="8" y="-91.6" font-family="Times,serif" font-size="13.00">Generated by RailRoady 1.3.1</text>
<text text-anchor="start" x="8" y="-78.6" font-family="Times,serif" font-size="13.00">http://railroady.prestonlee.com</text>
</g>
<!-- Build -->
<g id="node2" class="node"><title>Build</title>
<ellipse fill="none" stroke="black" cx="260.688" cy="-18" rx="29.5275" ry="18"/>
<text text-anchor="middle" x="260.688" y="-13.8" font-family="Times,serif" font-size="14.00">Build</text>
</g>
<!-- Command -->
<g id="node3" class="node"><title>Command</title>
<polygon fill="none" stroke="black" points="388.02,-126.5 313.356,-126.5 313.356,-90.5 388.02,-90.5 388.02,-126.5"/>
<text text-anchor="middle" x="350.688" y="-104.3" font-family="Times,serif" font-size="14.00">Command</text>
</g>
<!-- CommitStatus -->
<g id="node4" class="node"><title>CommitStatus</title>
<polygon fill="none" stroke="black" points="501.812,-126.5 405.564,-126.5 405.564,-90.5 501.812,-90.5 501.812,-126.5"/>
<text text-anchor="middle" x="453.688" y="-104.3" font-family="Times,serif" font-size="14.00">CommitStatus</text>
</g>
<!-- Project -->
<g id="node5" class="node"><title>Project</title>
<ellipse fill="none" stroke="black" cx="260.688" cy="-108.5" rx="35.3129" ry="18"/>
<text text-anchor="middle" x="260.688" y="-104.3" font-family="Times,serif" font-size="14.00">Project</text>
</g>
<!-- Project&#45;&gt;Build -->
<g id="edge1" class="edge"><title>Project&#45;&gt;Build</title>
<path fill="none" stroke="#3225ac" d="M260.688,-82.189C260.688,-70.9711 260.688,-57.7517 260.688,-46.3113"/>
<ellipse fill="none" stroke="#3225ac" cx="260.688" cy="-86.4363" rx="4" ry="4"/>
<polygon fill="#3225ac" stroke="#3225ac" points="260.688,-46.0113 265.188,-36.0113 260.688,-41.0113 260.688,-36.0113 260.688,-36.0113 260.688,-36.0113 260.688,-41.0113 256.188,-36.0113 260.688,-46.0113 260.688,-46.0113"/>
</g>
<!-- Runner -->
<g id="node6" class="node"><title>Runner</title>
<polygon fill="none" stroke="black" points="577.402,-126.5 519.973,-126.5 519.973,-90.5 577.402,-90.5 577.402,-126.5"/>
<text text-anchor="middle" x="548.688" y="-104.3" font-family="Times,serif" font-size="14.00">Runner</text>
</g>
</g>
</svg>
